<?xml version="1.0" standalone="no"?>
<!DOCTYPE svg PUBLIC "-//W3C//DTD SVG 20010904//EN"
 "http://www.w3.org/TR/2001/REC-SVG-20010904/DTD/svg10.dtd">
<svg version="1.0" xmlns="http://www.w3.org/2000/svg"
 width="776.000000pt" height="776.000000pt" viewBox="0 0 776.000000 776.000000"
 preserveAspectRatio="xMidYMid meet">
<metadata>
Created by potrace 1.11, written by Peter Selinger 2001-2013
</metadata>
<g transform="translate(0.000000,776.000000) scale(0.100000,-0.100000)"
fill="#000000" stroke="none">
<path d="M3338 7554 c-16 -8 -28 -19 -28 -24 0 -5 36 -152 81 -327 44 -175 91
-363 104 -418 13 -55 36 -145 50 -200 15 -55 33 -127 40 -160 8 -33 18 -73 24
-88 13 -33 2 -41 -114 -87 -71 -28 -309 -128 -390 -165 -16 -7 -106 -45 -200
-85 -93 -39 -213 -91 -265 -115 -52 -23 -124 -55 -160 -70 -80 -34 -336 -162
-370 -185 -14 -10 -52 -34 -85 -55 -208 -130 -384 -268 -570 -447 -345 -332
-613 -732 -801 -1196 -31 -77 -66 -179 -118 -351 -31 -102 -87 -401 -101 -544
-25 -242 -17 -657 15 -857 25 -155 33 -192 66 -325 148 -596 439 -1119 874
-1569 52 -54 132 -130 178 -168 45 -39 82 -73 82 -77 0 -4 -24 -6 -54 -3 -47
4 -55 2 -65 -17 l-12 -21 2311 0 c2308 0 2311 0 2300 20 -7 14 -21 20 -44 20
-18 0 -36 3 -39 6 -4 4 65 76 152 160 530 513 850 1093 995 1807 46 223 59
370 60 652 1 326 -26 561 -95 840 -240 966 -914 1800 -1808 2235 -91 45 -173
85 -181 90 -48 29 -313 167 -401 209 -57 27 -212 101 -344 166 -132 64 -250
121 -262 126 -29 11 -29 37 -3 172 17 88 87 469 135 732 8 44 24 133 35 197
12 65 18 122 15 128 -4 6 -176 10 -493 10 -412 -1 -491 -3 -514 -16z m958 -66
c-4 -18 -52 -280 -106 -583 -55 -302 -102 -558 -104 -567 -3 -14 80 -59 415
-225 230 -114 419 -211 419 -215 0 -4 -475 -8 -1055 -8 -837 0 -1055 3 -1055
13 0 6 37 26 83 44 45 17 224 91 397 163 173 72 332 138 353 147 20 8 37 22
37 29 0 8 -18 83 -39 167 -22 83 -90 350 -151 592 -61 242 -113 448 -116 458
-5 16 22 17 462 17 l467 0 -7 -32z m654 -1665 c0 -9 -103 -426 -229 -927 -126
-501 -232 -930 -236 -953 l-7 -43 -264 0 -264 0 0 100 0 100 -170 0 -170 0 0
-95 0 -95 -212 2 -213 3 -17 65 c-10 36 -56 238 -103 450 -47 212 -129 579
-182 815 -52 237 -103 465 -113 507 -9 43 -15 80 -12 83 3 2 497 5 1098 5
1017 0 1094 -1 1094 -17z m112 -11 c6 -7 542 -791 726 -1062 58 -85 112 -163
120 -173 14 -16 9 -23 -69 -94 -46 -43 -122 -114 -169 -158 -47 -44 -166 -154
-264 -245 -270 -248 -378 -349 -411 -386 -16 -18 -50 -49 -75 -70 -50 -40
-307 -280 -357 -333 -33 -34 -33 -34 -55 -15 -13 10 -25 21 -28 24 -3 3 -42
38 -88 79 -112 100 -112 99 -60 159 51 57 102 122 262 331 275 359 265 347
420 546 l59 76 -16 32 c-9 18 -66 106 -126 197 -61 91 -119 179 -129 195 l-19
31 111 442 111 443 25 -6 c14 -4 28 -9 32 -13z m-2348 -28 c4 -14 45 -197 92
-407 47 -210 89 -399 95 -419 9 -35 6 -42 -97 -210 -59 -95 -120 -195 -136
-221 l-28 -48 153 -192 c84 -106 251 -315 371 -465 l217 -273 -66 -114 c-37
-63 -70 -117 -74 -119 -4 -3 -137 99 -297 226 -159 126 -397 316 -529 421
-628 499 -705 561 -705 571 0 6 183 245 406 531 223 286 445 571 492 633 48
61 90 112 93 112 4 0 10 -12 13 -26z m-1586 -1281 c179 -303 313 -529 674
-1143 229 -388 479 -813 557 -945 91 -154 140 -247 137 -259 -11 -44 -481
-1256 -487 -1256 -4 0 -147 226 -320 503 -172 276 -430 691 -574 922 -144 231
-326 524 -404 650 -79 127 -151 237 -162 247 -18 16 -18 19 6 137 65 322 158
585 308 875 83 160 203 350 216 342 5 -3 27 -36 49 -73z m5587 -53 c186 -297
340 -673 414 -1014 l19 -86 -60 -98 c-33 -53 -93 -149 -133 -212 -78 -124 -98
-157 -590 -960 -180 -294 -364 -593 -408 -665 -45 -71 -108 -175 -142 -230
-217 -353 -258 -416 -265 -408 -4 4 -37 89 -73 188 -36 99 -140 384 -231 632
-91 249 -166 460 -166 468 0 9 9 28 19 43 10 15 82 128 159 252 76 124 186
299 242 390 57 91 124 199 150 240 108 174 266 429 299 482 20 31 60 97 90
145 30 48 80 129 111 178 32 50 153 244 270 433 117 189 217 339 221 335 4 -4
37 -55 74 -113z m-2815 -397 c1 -5 2 -78 3 -163 l2 -155 254 -3 c209 -2 252
-5 248 -16 -3 -8 -43 -61 -89 -120 l-83 -106 -417 0 -418 0 16 34 17 34 -72
88 -71 89 185 3 185 2 0 160 0 160 120 0 c66 0 120 -3 120 -7z m-290 -228 l0
-34 -177 -3 -178 -3 -27 30 c-15 17 -27 33 -28 38 0 4 92 7 205 7 l205 0 0
-35z m891 8 c-6 -10 -19 -28 -30 -40 -19 -23 -22 -23 -270 -23 l-251 0 0 40 0
40 280 0 c265 0 280 -1 271 -17z m-1632 -289 c94 -75 171 -139 171 -143 0 -3
-209 -50 -465 -104 -255 -55 -474 -101 -485 -104 -20 -5 -20 -1 -20 220 l0
226 33 5 c49 8 421 33 514 34 l81 2 171 -136z m2841 31 l0 -85 -432 0 -433 1
90 84 90 85 343 0 342 0 0 -85z m-1392 -192 c42 -37 107 -94 144 -126 l67 -59
27 21 c15 12 30 21 34 21 5 0 19 -33 33 -72 14 -40 64 -179 112 -308 47 -129
146 -399 220 -600 73 -201 271 -741 440 -1200 168 -459 321 -877 340 -928 l33
-92 -210 2 -210 3 -192 320 c-106 176 -304 504 -441 730 -136 226 -394 654
-573 951 -219 365 -330 540 -339 537 -8 -3 -31 -35 -52 -72 -84 -144 -507
-872 -559 -961 -30 -52 -79 -135 -107 -185 -29 -49 -187 -319 -350 -600 -164
-280 -325 -558 -359 -617 l-61 -108 -287 0 c-203 0 -288 3 -288 11 0 6 7 25
15 42 8 18 71 176 139 352 69 176 157 401 196 500 39 99 181 470 315 825 440
1168 592 1562 607 1571 6 4 28 10 50 13 37 6 44 3 113 -54 l75 -61 27 46 c16
25 45 73 65 105 l37 59 430 0 431 1 78 -67z m475 -2503 c117 -195 259 -430
315 -523 l101 -167 -28 -43 c-15 -23 -36 -57 -47 -75 l-18 -32 -648 0 c-356 0
-648 2 -648 4 0 5 29 52 226 371 72 116 218 351 324 523 106 172 197 309 201
305 4 -4 104 -168 222 -363z m-1672 242 c31 -53 122 -209 203 -347 82 -137
164 -277 183 -310 20 -33 80 -136 135 -228 55 -93 102 -175 105 -183 4 -12
-83 -14 -599 -14 l-605 0 -41 65 c-23 35 -42 71 -42 79 0 8 87 164 193 348
107 183 240 413 297 511 56 97 105 177 109 177 3 0 31 -44 62 -98z"/>
</g>
</svg>
